<svg width="104" height="42" viewBox="0 0 104 42" fill="none" xmlns="http://www.w3.org/2000/svg">
<path d="M12.6137 0.0926287C12.7168 0.0926287 12.7992 0.133514 12.8611 0.215285C12.9435 0.276613 12.9847 0.358384 12.9847 0.460597V3.435C12.9847 3.53721 12.9435 3.6292 12.8611 3.71097C12.7992 3.7723 12.7168 3.80296 12.6137 3.80296H8.74924C8.64618 3.80296 8.59466 3.85407 8.59466 3.95629V41.632C8.59466 41.7342 8.55344 41.8262 8.47099 41.908C8.40916 41.9693 8.32672 42 8.22367 42H4.60649C4.50344 42 4.41069 41.9693 4.32825 41.908C4.26641 41.8262 4.2355 41.7342 4.2355 41.632V3.95629C4.2355 3.85407 4.18397 3.80296 4.08092 3.80296H0.370992C0.267939 3.80296 0.175191 3.7723 0.0927481 3.71097C0.030916 3.6292 0 3.53721 0 3.435V0.460597C0 0.358384 0.030916 0.276613 0.0927481 0.215285C0.175191 0.133514 0.267939 0.0926287 0.370992 0.0926287H12.6137Z" fill="#F8F9FA"/>
<path d="M22.8399 0.460597C22.8399 0.358384 22.8709 0.276613 22.9327 0.215285C23.0151 0.133514 23.1079 0.0926287 23.2109 0.0926287H26.8281C26.9312 0.0926287 27.0136 0.133514 27.0754 0.215285C27.1579 0.276613 27.1991 0.358384 27.1991 0.460597V21.1894C27.1991 21.2916 27.1579 21.3836 27.0754 21.4654C27.0136 21.5267 26.9312 21.5574 26.8281 21.5574H23.2109C23.1079 21.5574 23.0151 21.5267 22.9327 21.4654C22.8709 21.3836 22.8399 21.2916 22.8399 21.1894V12.8182C22.8399 12.7159 22.7884 12.6648 22.6854 12.6648H19.5938C19.4907 12.6648 19.4392 12.7159 19.4392 12.8182V21.1894C19.4392 21.2916 19.398 21.3836 19.3155 21.4654C19.2537 21.5267 19.1712 21.5574 19.0682 21.5574H15.451C15.348 21.5574 15.2552 21.5267 15.1728 21.4654C15.1109 21.3836 15.08 21.2916 15.08 21.1894V0.460597C15.08 0.358384 15.1109 0.276613 15.1728 0.215285C15.2552 0.133514 15.348 0.0926287 15.451 0.0926287H19.0682C19.1712 0.0926287 19.2537 0.133514 19.3155 0.215285C19.398 0.276613 19.4392 0.358384 19.4392 0.460597V8.80119C19.4392 8.9034 19.4907 8.9545 19.5938 8.9545H22.6854C22.7884 8.9545 22.8399 8.9034 22.8399 8.80119V0.460597Z" fill="#F8F9FA"/>
<path d="M41.2826 2.81098C41.2826 2.89694 41.2413 2.9743 41.1589 3.04307C41.0971 3.09465 41.0146 3.12044 40.9116 3.12044H34.4501C34.3471 3.12044 34.2955 3.16342 34.2955 3.24939V7.32401C34.2955 7.40997 34.3471 7.45295 34.4501 7.45295H38.16C38.2631 7.45295 38.3455 7.48734 38.4074 7.55611C38.4898 7.60769 38.531 7.67645 38.531 7.76242V10.2639C38.531 10.3499 38.4898 10.4273 38.4074 10.496C38.3455 10.5476 38.2631 10.5734 38.16 10.5734H34.4501C34.3471 10.5734 34.2955 10.6164 34.2955 10.7023V14.8027C34.2955 14.8887 34.3471 14.9317 34.4501 14.9317H40.9116C41.0146 14.9317 41.0971 14.9661 41.1589 15.0348C41.2413 15.0864 41.2826 15.1552 41.2826 15.2412V17.7427C41.2826 17.8286 41.2413 17.906 41.1589 17.9748C41.0971 18.0263 41.0146 18.0521 40.9116 18.0521H30.3074C30.2043 18.0521 30.1116 18.0263 30.0291 17.9748C29.9673 17.906 29.9364 17.8286 29.9364 17.7427V0.309466C29.9364 0.223503 29.9673 0.154733 30.0291 0.103155C30.1116 0.0343851 30.2043 0 30.3074 0H40.9116C41.0146 0 41.0971 0.0343851 41.1589 0.103155C41.2413 0.154733 41.2826 0.223503 41.2826 0.309466V2.81098Z" fill="#F8F9FA"/>
<path d="M22.8399 20.9032C22.8399 20.801 22.8709 20.7192 22.9327 20.6579C23.0151 20.5761 23.1079 20.5352 23.2109 20.5352H26.8281C26.9312 20.5352 27.0136 20.5761 27.0754 20.6579C27.1579 20.7192 27.1991 20.801 27.1991 20.9032V41.632C27.1991 41.7342 27.1579 41.8262 27.0754 41.908C27.0136 41.9693 26.9312 42 26.8281 42H23.2109C23.1079 42 23.0151 41.9693 22.9327 41.908C22.8709 41.8262 22.8399 41.7342 22.8399 41.632V33.2608C22.8399 33.1586 22.7884 33.1075 22.6854 33.1075H19.5938C19.4907 33.1075 19.4392 33.1586 19.4392 33.2608V41.632C19.4392 41.7342 19.398 41.8262 19.3155 41.908C19.2537 41.9693 19.1712 42 19.0682 42H15.451C15.348 42 15.2552 41.9693 15.1728 41.908C15.1109 41.8262 15.08 41.7342 15.08 41.632V20.9032C15.08 20.801 15.1109 20.7192 15.1728 20.6579C15.2552 20.5761 15.348 20.5352 15.451 20.5352H19.0682C19.1712 20.5352 19.2537 20.5761 19.3155 20.6579C19.398 20.7192 19.4392 20.801 19.4392 20.9032V29.2438C19.4392 29.346 19.4907 29.3971 19.5938 29.3971H22.6854C22.7884 29.3971 22.8399 29.346 22.8399 29.2438V20.9032Z" fill="#F8F9FA"/>
<path d="M30.3052 42C30.2021 42 30.1094 41.9693 30.027 41.908C29.9651 41.8262 29.9342 41.7342 29.9342 41.632V20.9032C29.9342 20.801 29.9651 20.7192 30.027 20.6579C30.1094 20.5761 30.2021 20.5352 30.3052 20.5352H33.9224C34.0254 20.5352 34.1079 20.5761 34.1697 20.6579C34.2521 20.7192 34.2934 20.801 34.2934 20.9032V41.632C34.2934 41.7342 34.2521 41.8262 34.1697 41.908C34.1079 41.9693 34.0254 42 33.9224 42H30.3052Z" fill="#F8F9FA"/>
<path d="M45.5922 42C45.3655 42 45.2212 41.8978 45.1594 41.6934L42.7789 33.2301C42.7376 33.1483 42.6861 33.1075 42.6243 33.1075H41.5731C41.4701 33.1075 41.4185 33.1586 41.4185 33.2608V41.632C41.4185 41.7342 41.3773 41.8262 41.2949 41.908C41.2331 41.9693 41.1506 42 41.0476 42H37.4304C37.3273 42 37.2346 41.9693 37.1521 41.908C37.0903 41.8262 37.0594 41.7342 37.0594 41.632V20.9032C37.0594 20.801 37.0903 20.7192 37.1521 20.6579C37.2346 20.5761 37.3273 20.5352 37.4304 20.5352H43.6754C44.809 20.5352 45.8189 20.8112 46.7052 21.3632C47.5914 21.8947 48.2716 22.6511 48.7457 23.6323C49.2403 24.6136 49.4876 25.7379 49.4876 27.0053C49.4876 28.2115 49.2506 29.2745 48.7766 30.1944C48.3231 31.1143 47.6842 31.8298 46.8598 32.3409C46.8186 32.3613 46.7876 32.392 46.767 32.4329C46.7464 32.4533 46.7464 32.484 46.767 32.5248L49.6113 41.5707L49.6422 41.6934C49.6422 41.8978 49.5289 42 49.3021 42H45.5922ZM41.5731 24.2456C41.4701 24.2456 41.4185 24.2967 41.4185 24.3989V29.6424C41.4185 29.7447 41.4701 29.7958 41.5731 29.7958H42.9644C43.6033 29.7958 44.1185 29.5504 44.5102 29.0598C44.9224 28.5488 45.1285 27.8742 45.1285 27.036C45.1285 26.1774 44.9224 25.5028 44.5102 25.0122C44.1185 24.5011 43.6033 24.2456 42.9644 24.2456H41.5731Z" fill="#F8F9FA"/>
<path d="M63.0182 20.5352C63.1213 20.5352 63.2037 20.5761 63.2655 20.6579C63.348 20.7192 63.3892 20.801 63.3892 20.9032V23.8776C63.3892 23.9798 63.348 24.0718 63.2655 24.1536C63.2037 24.2149 63.1213 24.2456 63.0182 24.2456H59.1537C59.0506 24.2456 58.9991 24.2967 58.9991 24.3989V41.632C58.9991 41.7342 58.9579 41.8262 58.8755 41.908C58.8136 41.9693 58.7312 42 58.6281 42H55.011C54.9079 42 54.8152 41.9693 54.7327 41.908C54.6709 41.8262 54.64 41.7342 54.64 41.632V24.3989C54.64 24.2967 54.5884 24.2456 54.4854 24.2456H50.7755C50.6724 24.2456 50.5797 24.2149 50.4972 24.1536C50.4354 24.0718 50.4045 23.9798 50.4045 23.8776V20.9032C50.4045 20.801 50.4354 20.7192 50.4972 20.6579C50.5797 20.5761 50.6724 20.5352 50.7755 20.5352H63.0182Z" fill="#F8F9FA"/>
<path d="M76.2418 23.8776C76.2418 23.9798 76.2006 24.0718 76.1181 24.1536C76.0563 24.2149 75.9739 24.2456 75.8708 24.2456H69.4094C69.3063 24.2456 69.2548 24.2967 69.2548 24.3989V29.2438C69.2548 29.346 69.3063 29.3971 69.4094 29.3971H73.1193C73.2223 29.3971 73.3048 29.438 73.3666 29.5198C73.449 29.5811 73.4903 29.6629 73.4903 29.7651V32.7395C73.4903 32.8417 73.449 32.9337 73.3666 33.0155C73.3048 33.0768 73.2223 33.1075 73.1193 33.1075H69.4094C69.3063 33.1075 69.2548 33.1586 69.2548 33.2608V38.1363C69.2548 38.2386 69.3063 38.2897 69.4094 38.2897H75.8708C75.9739 38.2897 76.0563 38.3306 76.1181 38.4123C76.2006 38.4737 76.2418 38.5554 76.2418 38.6576V41.632C76.2418 41.7342 76.2006 41.8262 76.1181 41.908C76.0563 41.9693 75.9739 42 75.8708 42H65.2666C65.1635 42 65.0708 41.9693 64.9884 41.908C64.9265 41.8262 64.8956 41.7342 64.8956 41.632V20.9032C64.8956 20.801 64.9265 20.7192 64.9884 20.6579C65.0708 20.5761 65.1635 20.5352 65.2666 20.5352H75.8708C75.9739 20.5352 76.0563 20.5761 76.1181 20.6579C76.2006 20.7192 76.2418 20.801 76.2418 20.9032V23.8776Z" fill="#F8F9FA"/>
<path d="M89.2089 23.8776C89.2089 23.9798 89.1676 24.0718 89.0852 24.1536C89.0234 24.2149 88.9409 24.2456 88.8379 24.2456H82.3764C82.2734 24.2456 82.2218 24.2967 82.2218 24.3989V29.2438C82.2218 29.346 82.2734 29.3971 82.3764 29.3971H86.0863C86.1894 29.3971 86.2719 29.438 86.3337 29.5198C86.4161 29.5811 86.4574 29.6629 86.4574 29.7651V32.7395C86.4574 32.8417 86.4161 32.9337 86.3337 33.0155C86.2719 33.0768 86.1894 33.1075 86.0863 33.1075H82.3764C82.2734 33.1075 82.2218 33.1586 82.2218 33.2608V38.1363C82.2218 38.2386 82.2734 38.2897 82.3764 38.2897H88.8379C88.9409 38.2897 89.0234 38.3306 89.0852 38.4123C89.1676 38.4737 89.2089 38.5554 89.2089 38.6576V41.632C89.2089 41.7342 89.1676 41.8262 89.0852 41.908C89.0234 41.9693 88.9409 42 88.8379 42H78.2337C78.1306 42 78.0379 41.9693 77.9554 41.908C77.8936 41.8262 77.8627 41.7342 77.8627 41.632V20.9032C77.8627 20.801 77.8936 20.7192 77.9554 20.6579C78.0379 20.5761 78.1306 20.5352 78.2337 20.5352H88.8379C88.9409 20.5352 89.0234 20.5761 89.0852 20.6579C89.1676 20.7192 89.2089 20.801 89.2089 20.9032V23.8776Z" fill="#F8F9FA"/>
<path d="M99.6718 20.9032C99.6718 20.801 99.7027 20.7192 99.7645 20.6579C99.8469 20.5761 99.9397 20.5352 100.043 20.5352H103.629C103.732 20.5352 103.815 20.5761 103.876 20.6579C103.959 20.7192 104 20.801 104 20.9032V41.632C104 41.7342 103.959 41.8262 103.876 41.908C103.815 41.9693 103.732 42 103.629 42H99.5481C99.342 42 99.208 41.8978 99.1462 41.6934L95.3126 29.8264C95.292 29.7651 95.2508 29.7447 95.1889 29.7651C95.1477 29.7651 95.1271 29.7958 95.1271 29.8571L95.158 41.632C95.158 41.7342 95.1168 41.8262 95.0343 41.908C94.9725 41.9693 94.8901 42 94.787 42H91.2008C91.0977 42 91.005 41.9693 90.9225 41.908C90.8607 41.8262 90.8298 41.7342 90.8298 41.632V20.9032C90.8298 20.801 90.8607 20.7192 90.9225 20.6579C91.005 20.5761 91.0977 20.5352 91.2008 20.5352H95.2508C95.4569 20.5352 95.5908 20.6375 95.6527 20.8419L99.5172 32.7088C99.5378 32.7702 99.5687 32.8008 99.6099 32.8008C99.6718 32.7804 99.7027 32.7395 99.7027 32.6782L99.6718 20.9032Z" fill="#F8F9FA"/>
</svg>
